<?xml version="1.0" standalone="no"?>
<!DOCTYPE svg PUBLIC "-//W3C//DTD SVG 20010904//EN"
 "http://www.w3.org/TR/2001/REC-SVG-20010904/DTD/svg10.dtd">
<svg version="1.0" xmlns="http://www.w3.org/2000/svg"
 width="256.000000pt" height="256.000000pt" viewBox="0 0 256.000000 256.000000"
 preserveAspectRatio="xMidYMid meet">
<metadata>
Created by potrace 1.14, written by Peter Selinger 2001-2017
</metadata>
<g transform="translate(0.000000,256.000000) scale(0.100000,-0.100000)"
fill="#000000" stroke="none">
<path d="M910 2320 l0 -30 -190 0 -190 0 0 -25 c0 -20 -5 -25 -25 -25 -20 0
-25 -5 -25 -25 0 -20 -5 -25 -25 -25 -20 0 -25 5 -25 25 0 25 -1 25 -80 25
-79 0 -80 0 -80 -25 0 -21 -5 -25 -30 -25 l-30 0 0 -110 0 -110 -25 0 c-25 0
-25 -1 -25 -80 0 -79 0 -80 -25 -80 -20 0 -25 -5 -25 -25 0 -20 5 -25 25 -25
20 0 25 -5 25 -25 0 -20 -5 -25 -25 -25 l-25 0 0 -135 0 -135 25 0 25 0 0
-135 0 -135 25 0 25 0 0 -160 0 -160 30 0 c25 0 30 -4 30 -25 0 -21 -5 -25
-30 -25 -30 0 -30 -1 -30 -55 0 -52 -1 -55 -25 -55 l-25 0 0 -160 0 -160 -25
0 -25 0 0 -105 0 -105 -55 0 -55 0 0 -80 0 -80 880 0 880 0 0 25 c0 20 -5 25
-25 25 l-25 0 0 135 0 135 -30 0 c-30 0 -30 1 -30 55 l0 55 -50 0 -50 0 0 80
c0 79 0 80 25 80 l25 0 0 105 0 105 25 0 25 0 0 240 0 240 30 0 c30 0 30 1 30
55 0 52 1 55 25 55 20 0 25 5 25 25 0 20 5 25 25 25 20 0 25 5 25 25 0 21 5
25 30 25 l30 0 0 190 0 190 -30 0 c-25 0 -30 4 -30 25 0 20 -5 25 -25 25 -25
0 -25 1 -25 80 0 79 0 80 -25 80 -20 0 -25 5 -25 25 0 25 -1 25 -80 25 l-80 0
0 30 c0 27 -3 30 -30 30 -25 0 -30 4 -30 25 0 20 -5 25 -25 25 -20 0 -25 5
-25 25 0 20 -5 25 -25 25 -21 0 -25 5 -25 30 l0 30 -240 0 -240 0 0 -30z m50
-745 l0 -25 135 0 135 0 0 -30 0 -30 80 0 c79 0 80 0 80 -25 0 -20 5 -25 25
-25 20 0 25 -5 25 -25 l0 -25 -135 0 -135 0 0 25 0 25 -130 0 -130 0 0 -25 c0
-25 -1 -25 -80 -25 -79 0 -80 0 -80 25 0 21 -5 25 -30 25 -25 0 -30 4 -30 25
0 21 5 25 30 25 27 0 30 3 30 30 l0 30 80 0 c79 0 80 0 80 25 0 20 5 25 25 25
20 0 25 -5 25 -25z m430 -320 c0 -21 -5 -25 -30 -25 -25 0 -30 4 -30 25 0 21
5 25 30 25 25 0 30 -4 30 -25z m-590 -55 l0 -30 185 0 185 0 0 -130 0 -130
-25 0 c-24 0 -25 -3 -25 -55 l0 -55 55 0 c52 0 55 -1 55 -25 l0 -25 -110 0
-110 0 0 -80 0 -80 55 0 55 0 0 -55 c0 -52 1 -55 25 -55 20 0 25 -5 25 -25 l0
-25 135 0 135 0 0 -30 c0 -25 -4 -30 -25 -30 -20 0 -25 -5 -25 -25 l0 -25
-160 0 -160 0 0 25 c0 21 -5 25 -30 25 -27 0 -30 3 -30 30 0 25 -4 30 -25 30
-20 0 -25 5 -25 25 0 20 -5 25 -25 25 -20 0 -25 5 -25 25 0 20 5 25 25 25 21
0 25 5 25 30 0 25 -4 30 -25 30 -20 0 -25 5 -25 25 0 21 -5 25 -30 25 -30 0
-30 1 -30 55 0 52 -1 55 -25 55 -23 0 -25 3 -25 50 0 47 -2 50 -25 50 -25 0
-25 1 -25 80 l0 80 -30 0 c-30 0 -30 1 -30 55 0 52 -1 55 -25 55 -24 0 -25 3
-25 55 l0 55 80 0 80 0 0 -30z m800 -215 l0 -185 -25 0 c-20 0 -25 -5 -25 -25
0 -21 -5 -25 -30 -25 -25 0 -30 4 -30 25 0 21 5 25 30 25 l30 0 0 105 0 105
-30 0 c-30 0 -30 1 -30 55 0 54 0 55 30 55 25 0 30 4 30 25 0 20 5 25 25 25
l25 0 0 -185z"/>
</g>
</svg>
